<svg xmlns="http://www.w3.org/2000/svg"><symbol id="icon-youtube-play" viewBox="0 0 100 100"><path d="M37.9,36.6L62,50.1L37.8,63.4L37.9,36.6L37.9,36.6z M3.2,54.9c0.2,7.6,0.2,18.9,6.2,23.3c2.1,1.6,4.4,1.8,7.6,2  c18.3,1.2,38.7,1.2,57.2,0.4c5.5-0.2,12.9,0.2,16.8-2.7c6.6-4.9,6.2-22.8,5.9-33c-0.1-4.8-0.5-13.5-2.1-17.5  c-2.1-5.3-4.8-7.4-11.7-7.8c-18.3-1.1-38.7-1.1-57.2-0.4C11.3,19.8,5.3,18.8,3.7,36.1C3.1,42.3,3,48.7,3.2,54.9z"></path><path fill="#FFFFFF" d="M37.9,36.6L62,50.1L37.8,63.4L37.9,36.6L37.9,36.6z"></path></symbol></svg>
